<!DOCTYPE svg PUBLIC "-//W3C//DTD SVG 1.1//EN" "http://www.w3.org/Graphics/SVG/1.1/DTD/svg11.dtd">
<!-- Uploaded to: SVG Repo, www.svgrepo.com, Transformed by: SVG Repo Mixer Tools -->
<svg version="1.1" id="_x32_" xmlns="http://www.w3.org/2000/svg" xmlns:xlink="http://www.w3.org/1999/xlink" width="800px" height="800px" viewBox="-40.96 -40.96 593.92 593.92" xml:space="preserve" fill="#000000" stroke="#000000" stroke-width="0.00512">
<g id="SVGRepo_bgCarrier" stroke-width="0" transform="translate(20.47999999999999,20.47999999999999), scale(0.92)">
<path transform="translate(-40.96, -40.96), scale(37.12)" fill="#ff7b00" d="M9.166.33a2.25 2.25 0 00-2.332 0l-5.25 3.182A2.25 2.25 0 00.5 5.436v5.128a2.25 2.25 0 001.084 1.924l5.25 3.182a2.25 2.25 0 002.332 0l5.25-3.182a2.25 2.25 0 001.084-1.924V5.436a2.25 2.25 0 00-1.084-1.924L9.166.33z" strokewidth="0"/>
</g>
<g id="SVGRepo_tracerCarrier" stroke-linecap="round" stroke-linejoin="round" stroke="#000000" stroke-width="54.272000000000006"> <style type="text/css">  .st0{fill:#ffffff;}  </style> <g> <path class="st0" d="M426.031,156.824c6.125-9.891,10.438-20.141,12.422-30.188c7.953-40.094-17.984-86.156-63.75-103.547 c-8.453-3.219-13.156,3.984-8.219,11.359c12.031,17.906,21.844,51.125,3.984,73.922c-1.625,2.094-3.391,3.984-5.188,5.797 L343.25,98.699h-174.5l-22.031,15.469c-1.797-1.813-3.563-3.703-5.188-5.797c-17.859-22.797-8.047-56.016,3.984-73.922 c4.938-7.375,0.234-14.578-8.219-11.359C91.531,40.48,65.594,86.543,73.547,126.637c1.984,10.047,6.297,20.297,12.422,30.188 L0,217.184c0,0,63.984,63.984,119.375,19.75c0,31.594,13.828,67.938,44.641,89.25l16.578,66.078 c-20.547,6.125-35.531,25.141-35.531,47.672c0,27.484,22.266,49.766,49.75,49.766h122.375c27.484,0,49.766-22.281,49.766-49.766 c0-22.531-15-41.547-35.547-47.672L348,326.184c30.797-21.313,44.625-57.656,44.625-89.25C448.016,281.168,512,217.184,512,217.184 L426.031,156.824z"/> </g> </g>
<g id="SVGRepo_iconCarrier"> <style type="text/css">  .st0{fill:#ffffff;}  </style> <g> <path class="st0" d="M426.031,156.824c6.125-9.891,10.438-20.141,12.422-30.188c7.953-40.094-17.984-86.156-63.75-103.547 c-8.453-3.219-13.156,3.984-8.219,11.359c12.031,17.906,21.844,51.125,3.984,73.922c-1.625,2.094-3.391,3.984-5.188,5.797 L343.25,98.699h-174.5l-22.031,15.469c-1.797-1.813-3.563-3.703-5.188-5.797c-17.859-22.797-8.047-56.016,3.984-73.922 c4.938-7.375,0.234-14.578-8.219-11.359C91.531,40.48,65.594,86.543,73.547,126.637c1.984,10.047,6.297,20.297,12.422,30.188 L0,217.184c0,0,63.984,63.984,119.375,19.75c0,31.594,13.828,67.938,44.641,89.25l16.578,66.078 c-20.547,6.125-35.531,25.141-35.531,47.672c0,27.484,22.266,49.766,49.75,49.766h122.375c27.484,0,49.766-22.281,49.766-49.766 c0-22.531-15-41.547-35.547-47.672L348,326.184c30.797-21.313,44.625-57.656,44.625-89.25C448.016,281.168,512,217.184,512,217.184 L426.031,156.824z"/> </g> </g>
</svg>